<svg xmlns="http://www.w3.org/2000/svg" xmlns:xlink="http://www.w3.org/1999/xlink" viewBox="0 0 71.5 71.5"><defs><style>.cls-1{fill:url(#未命名漸層_22);}.cls-2{fill:#040000;}</style><linearGradient id="未命名漸層_22" y1="35.75" x2="71.5" y2="35.75" gradientUnits="userSpaceOnUse"><stop offset="0" stop-color="#6bb92d"/><stop offset="1" stop-color="#23993a"/></linearGradient></defs><g id="圖層_2" data-name="圖層 2"><g id="圖層_1-2" data-name="圖層 1"><rect class="cls-1" width="71.5" height="71.5"/><path class="cls-2" d="M35.53,57.51A21.85,21.85,0,0,1,27,55.86,21.57,21.57,0,0,1,15.38,44.28a21.93,21.93,0,0,1-1.67-8.59,21.45,21.45,0,0,1,1.67-8.45A21.7,21.7,0,0,1,20,20.32a22,22,0,0,1,7-4.69,22.26,22.26,0,0,1,17,0,21.57,21.57,0,0,1,6.92,4.69,22.48,22.48,0,0,1,4.69,7,21.12,21.12,0,0,1,1.7,8.45A21.66,21.66,0,0,1,35.53,57.51Zm-.12-4.58a16.89,16.89,0,0,0,6.76-1.34,17.24,17.24,0,0,0,5.49-3.73,17.75,17.75,0,0,0,3.71-5.53,17.4,17.4,0,0,0,0-13.39,17.54,17.54,0,0,0-9.26-9.27,17.52,17.52,0,0,0-13.39,0,17.61,17.61,0,0,0-9.27,9.27,17.52,17.52,0,0,0,0,13.39,17.78,17.78,0,0,0,3.72,5.53,17.24,17.24,0,0,0,5.49,3.73A16.88,16.88,0,0,0,35.41,52.93Zm.45-3.68a13,13,0,0,1-6.75-1.76,12.57,12.57,0,0,1-4.66-4.85,14.38,14.38,0,0,1-1.7-7.06,14.89,14.89,0,0,1,1.64-7.06,12.32,12.32,0,0,1,11.25-6.67A11.68,11.68,0,0,1,45,26.32a2.12,2.12,0,0,1,.5,1.75,2.69,2.69,0,0,1-1.12,1.65,2,2,0,0,1-1.62.33,2.76,2.76,0,0,1-1.56-.89,7.19,7.19,0,0,0-5.52-2.45,7.67,7.67,0,0,0-4.13,1.11A7.45,7.45,0,0,0,28.75,31a10.34,10.34,0,0,0-1,4.63,10,10,0,0,0,1,4.63,7.69,7.69,0,0,0,2.85,3.12,7.81,7.81,0,0,0,4.21,1.12,7.4,7.4,0,0,0,5-1.62,3,3,0,0,1,1.67-.75,2,2,0,0,1,1.56.47,2.6,2.6,0,0,1,1,1.73A2,2,0,0,1,44.4,46,11.82,11.82,0,0,1,35.86,49.25Z"/></g></g></svg>